<svg width="70" height="48" viewBox="0 0 70 48" fill="none" xmlns="http://www.w3.org/2000/svg">
<rect width="70" height="48" rx="4" fill="#F1F6FF"/>
<path fill-rule="evenodd" clip-rule="evenodd" d="M33.0593 31.5159V25.474H36.1776C37.4555 25.474 38.534 25.0459 39.4132 24.2014L39.6242 23.9873C41.2303 22.239 41.1248 19.5154 39.4132 17.8979C38.5574 17.0415 37.3851 16.5777 36.1776 16.6015H31.1719V31.5159H33.0593ZM33.0595 23.6424V18.433H36.2253C36.9053 18.433 37.5502 18.6947 38.0309 19.1704C39.051 20.1695 39.0744 21.8346 38.0895 22.8693C37.6088 23.3807 36.9288 23.6662 36.2253 23.6424H33.0595ZM48.4283 22.1082C47.6194 21.3589 46.5175 20.9783 45.1224 20.9783C43.3288 20.9783 41.9806 21.6443 41.0897 22.9645L42.7544 24.023C43.364 23.1191 44.1963 22.6672 45.2514 22.6672C45.9196 22.6672 46.5644 22.9169 47.0685 23.3689C47.5608 23.7971 47.8422 24.4155 47.8422 25.0697V25.5097C47.1154 25.1053 46.201 24.8913 45.0755 24.8913C43.7625 24.8913 42.7075 25.2005 41.922 25.8308C41.1366 26.4612 40.738 27.2937 40.738 28.3523C40.7145 29.3156 41.1248 30.2314 41.8517 30.8499C42.5902 31.5159 43.5281 31.849 44.6301 31.849C45.9313 31.849 46.963 31.2662 47.7484 30.1006H47.8305V31.5159H49.6358V25.2243C49.6358 23.9041 49.2372 22.8575 48.4283 22.1082ZM43.3057 29.6368C42.9187 29.3513 42.6842 28.8875 42.6842 28.3879C42.6842 27.8289 42.9422 27.3651 43.4464 26.9964C43.9623 26.6277 44.6071 26.4374 45.3693 26.4374C46.4245 26.4255 47.2453 26.6634 47.8315 27.1391C47.8315 27.9479 47.5149 28.6496 46.8935 29.2443C46.3307 29.8152 45.5686 30.1363 44.7713 30.1363C44.2437 30.1482 43.7278 29.9698 43.3057 29.6368ZM53.6921 35.9998L59.9991 21.3113H57.9476L55.0285 28.6377H54.9933L52.0039 21.3113H49.9524L54.0906 30.8618L51.746 35.9998H53.6921Z" fill="#3C4043"/>
<path d="M26.544 24.1657C26.544 23.5829 26.4971 23.0001 26.4034 22.4292H18.4434V25.7237H23.0037C22.8161 26.7822 22.2065 27.7337 21.3155 28.3284V30.4692H24.0353C25.6296 28.9825 26.544 26.7822 26.544 24.1657Z" fill="#4285F4"/>
<path d="M18.4442 32.5387C20.7185 32.5387 22.6411 31.7775 24.0361 30.4693L21.3164 28.3284C20.5544 28.8517 19.5814 29.1491 18.4442 29.1491C16.2403 29.1491 14.3763 27.6386 13.7081 25.6167H10.9062V27.8289C12.3365 30.719 15.2555 32.5387 18.4442 32.5387Z" fill="#34A853"/>
<path d="M13.708 25.6167C13.3563 24.5582 13.3563 23.4045 13.708 22.3341V20.1338H10.9058C9.69808 22.5482 9.69808 25.4026 10.9058 27.817L13.708 25.6167Z" fill="#FBBC04"/>
<path d="M18.4442 18.8018C19.6517 18.778 20.8123 19.2419 21.6798 20.0863L24.0948 17.6362C22.559 16.1852 20.5427 15.3884 18.4442 15.4121C15.2555 15.4121 12.3365 17.2437 10.9062 20.1339L13.7081 22.3461C14.3763 20.3123 16.2403 18.8018 18.4442 18.8018Z" fill="#EA4335"/>
</svg>
