<svg width="109" height="21" viewBox="0 0 109 21" fill="none" xmlns="http://www.w3.org/2000/svg">
<path d="M0.376065 20V1.81818H4.7706V16.4311H12.3345V20H0.376065ZM14.6095 20V6.36364H18.9507V20H14.6095ZM16.7845 4.7745C16.1749 4.7745 15.6511 4.57327 15.2132 4.17081C14.7752 3.76243 14.5562 3.27119 14.5562 2.69709C14.5562 2.12891 14.7752 1.64358 15.2132 1.24112C15.6511 0.832741 16.1749 0.62855 16.7845 0.62855C17.4001 0.62855 17.9239 0.832741 18.3559 1.24112C18.7939 1.64358 19.0129 2.12891 19.0129 2.69709C19.0129 3.27119 18.7939 3.76243 18.3559 4.17081C17.9239 4.57327 17.4001 4.7745 16.7845 4.7745ZM26.0552 1.81818V20H21.714V1.81818H26.0552ZM46.1214 7.75746C46.0207 7.38459 45.8728 7.05611 45.6775 6.77202C45.4822 6.48201 45.2425 6.23639 44.9584 6.03516C44.6743 5.83393 44.3488 5.683 43.9818 5.58239C43.6149 5.47585 43.2124 5.42258 42.7744 5.42258C41.8925 5.42258 41.1291 5.63565 40.4839 6.06179C39.8447 6.48793 39.3505 7.10937 39.0013 7.92614C38.6521 8.73698 38.4775 9.72242 38.4775 10.8825C38.4775 12.0484 38.6462 13.0427 38.9836 13.8654C39.3209 14.6881 39.8092 15.3155 40.4484 15.7475C41.0876 16.1796 41.863 16.3956 42.7744 16.3956C43.5793 16.3956 44.26 16.2654 44.8163 16.005C45.3786 15.7386 45.8047 15.3628 46.0947 14.8775C46.3847 14.3922 46.5297 13.821 46.5297 13.1641L47.3465 13.2617H42.9253V10.0568H50.7645V12.4627C50.7645 14.0903 50.4182 15.4841 49.7258 16.6442C49.0392 17.8042 48.0922 18.695 46.8849 19.3164C45.6834 19.9379 44.3014 20.2486 42.7389 20.2486C41.0048 20.2486 39.4807 19.8728 38.1668 19.1211C36.8529 18.3694 35.829 17.2982 35.0951 15.9073C34.3612 14.5105 33.9942 12.8533 33.9942 10.9357C33.9942 9.44425 34.2162 8.12145 34.6601 6.96733C35.104 5.80729 35.7224 4.82481 36.5155 4.01989C37.3145 3.21496 38.2378 2.60535 39.2854 2.19105C40.3389 1.77675 41.4723 1.5696 42.6856 1.5696C43.7391 1.5696 44.7187 1.72053 45.6242 2.02237C46.5357 2.32422 47.3406 2.75036 48.039 3.30078C48.7433 3.85121 49.3144 4.50521 49.7524 5.26278C50.1904 6.02036 50.4626 6.85192 50.5692 7.75746H46.1214ZM53.3546 20V1.81818H60.8652C62.2265 1.81818 63.4013 2.08452 64.3897 2.61719C65.3841 3.14394 66.1505 3.8808 66.6891 4.82777C67.2277 5.76882 67.497 6.86375 67.497 8.11257C67.497 9.36731 67.2218 10.4652 66.6713 11.4062C66.1268 12.3414 65.3485 13.0664 64.3365 13.5813C63.3244 14.0962 62.1229 14.3537 60.7321 14.3537H56.0978V10.8913H59.9153C60.5782 10.8913 61.1316 10.7759 61.5755 10.5451C62.0253 10.3143 62.3656 9.99171 62.5964 9.57741C62.8272 9.1572 62.9426 8.66892 62.9426 8.11257C62.9426 7.55031 62.8272 7.06498 62.5964 6.6566C62.3656 6.24231 62.0253 5.9227 61.5755 5.6978C61.1257 5.47289 60.5723 5.36044 59.9153 5.36044H57.7491V20H53.3546ZM69.0684 5.38707V1.81818H84.4359V5.38707H78.9228V20H74.5904V5.38707H69.0684ZM96.401 1.81818L99.7213 7.56214H99.8634L103.219 1.81818H108.138L102.651 10.9091L108.315 20H103.272L99.8634 14.1939H99.7213L96.3122 20H91.3051L96.9426 10.9091L91.4472 1.81818H96.401Z" fill="white"/>
</svg>
