<svg width="70" height="48" viewBox="0 0 70 48" fill="none" xmlns="http://www.w3.org/2000/svg">
<rect width="70" height="48" rx="4" fill="#F3FBFF"/>
<path d="M30.4727 35.5372L30.9017 32.8122L29.9461 32.79H25.3828L28.5541 12.6818C28.5638 12.621 28.5959 12.5644 28.6426 12.5243C28.6894 12.4841 28.7494 12.4619 28.8117 12.4619H36.5061C39.0606 12.4619 40.8234 12.9935 41.7438 14.0426C42.1753 14.5348 42.4501 15.0492 42.5831 15.6152C42.7224 16.2091 42.725 16.9187 42.5887 17.7841L42.5788 17.8473V18.4018L43.0105 18.6462C43.3739 18.839 43.6624 19.0597 43.8839 19.3123C44.2532 19.7331 44.492 20.268 44.5928 20.9021C44.6969 21.5542 44.6625 22.3302 44.492 23.2088C44.295 24.2194 43.9767 25.0996 43.547 25.8199C43.1514 26.4835 42.6478 27.0338 42.0499 27.4605C41.4789 27.8657 40.8005 28.1734 40.0335 28.3703C39.2902 28.5637 38.4429 28.6615 37.5135 28.6615H36.9147C36.4865 28.6615 36.0705 28.8157 35.7441 29.0922C35.4169 29.3744 35.2001 29.7597 35.1337 30.1815L35.0886 30.4268L34.3306 35.2295L34.2962 35.4059C34.2872 35.4619 34.2716 35.4898 34.2487 35.5086C34.2282 35.5257 34.1986 35.5372 34.1698 35.5372H30.4727Z" fill="#253B80"/>
<path d="M43.4161 17.9126C43.3932 18.0594 43.367 18.2095 43.3375 18.3638C42.3226 23.5736 38.8512 25.3733 34.4173 25.3733H32.1598C31.6177 25.3733 31.1608 25.7671 31.0762 26.3019L29.9203 33.6323L29.5931 35.71C29.538 36.0612 29.8089 36.3778 30.1631 36.3778H34.1672C34.6414 36.3778 35.044 36.0333 35.1186 35.5657L35.158 35.3622L35.912 30.5781L35.9604 30.3158C36.0341 29.8466 36.4376 29.5021 36.9118 29.5021H37.5106C41.3898 29.5021 44.4268 27.927 45.3144 23.3693C45.6851 21.4654 45.4932 19.8756 44.512 18.7575C44.2152 18.4204 43.8468 18.1406 43.4161 17.9126Z" fill="#179BD7"/>
<path d="M42.3527 17.4882C42.1978 17.4431 42.0377 17.4021 41.8736 17.3652C41.7088 17.3291 41.5397 17.2971 41.3659 17.2692C40.7571 17.1708 40.0903 17.124 39.3757 17.124H33.3449C33.1964 17.124 33.0554 17.1576 32.9291 17.2184C32.6509 17.3521 32.4443 17.6154 32.3942 17.9378L31.1111 26.0638L31.0742 26.3008C31.1588 25.766 31.6157 25.3722 32.1578 25.3722H34.4153C38.8492 25.3722 42.3208 23.5717 43.3355 18.3627C43.3657 18.2085 43.3912 18.0584 43.4141 17.9115C43.1574 17.7754 42.8793 17.6589 42.5799 17.5596C42.5062 17.535 42.4299 17.5112 42.3527 17.4882Z" fill="#222D65"/>
<path d="M32.3981 17.9381C32.4481 17.6157 32.655 17.3524 32.9329 17.2195C33.0602 17.1588 33.2005 17.1252 33.3488 17.1252H39.3799C40.0944 17.1252 40.7612 17.1719 41.3698 17.2704C41.5438 17.2983 41.7129 17.3303 41.8777 17.3664C42.0418 17.4033 42.2017 17.4443 42.3568 17.4894C42.4338 17.5124 42.51 17.5362 42.5847 17.56C42.8841 17.6592 43.1623 17.7765 43.4189 17.9119C43.7209 15.9866 43.4166 14.6757 42.3757 13.4887C41.2281 12.182 39.1567 11.6226 36.5063 11.6226H28.8117C28.2702 11.6226 27.8086 12.0163 27.7248 12.552L24.5199 32.867C24.4567 33.2689 24.7667 33.6316 25.1719 33.6316H29.9225L31.1152 26.0641L32.3981 17.9381Z" fill="#253B80"/>
</svg>
